<?xml version="1.0" encoding="utf-8"?>
<!-- Generator: Adobe Illustrator 19.1.0, SVG Export Plug-In . SVG Version: 6.00 Build 0)  -->
<svg version="1.1" id="Layer_1" xmlns="http://www.w3.org/2000/svg" xmlns:xlink="http://www.w3.org/1999/xlink" x="0px" y="0px"
	 viewBox="237 317.3 919.9 164.3" style="enable-background:new 237 317.3 919.9 164.3;" xml:space="preserve">
<style type="text/css">
	.st0{fill:#C41230;}
</style>
<g>
	<path d="M255.9,466.1c-7.2,0-12.4-1.7-15.8-3.7l0.6-4.4c3.5,2.2,9.1,4.2,15.5,4.2c7.9,0,14.2-4.9,14.2-12.6c0-6.5-3.6-10.2-13-14.2
		c-12.1-5.1-16.3-9.3-16.3-17.9c0-8.8,7.5-14.9,16.9-14.9c5.8,0,10.3,1.3,13.4,3.1l-0.6,4.3c-3.6-2.1-7.6-3.5-13-3.5
		c-7.5,0-12.3,4.8-12.3,10.9c0,6.5,3.5,9.5,13.2,13.7c11.1,4.7,16.2,9.5,16.2,18.4C274.9,459.9,266.1,466.1,255.9,466.1z"/>
	<path d="M298.9,466.2c-10.3,0-18.6-8.1-18.6-22c0-14,8.4-22,18.9-22c5.3,0,10,1.9,13.7,4.7l-0.8,4.3c-4.2-3.6-8.2-5.3-13-5.3
		c-9,0-14.3,7.5-14.3,18.4c0,10.6,5.1,18.4,14.7,18.4c4.6,0,8.8-1.6,13.2-5.4l0.5,4C309.2,464.4,304.6,466.2,298.9,466.2z"/>
	<path d="M348.5,465.3v-29.4c0-6.4-3.1-9.9-9.1-9.9c-4.7,0-9.5,2.7-14.8,7.6v31.7h-4.2v-63.4l4.2-0.9v28.3c5.1-4.4,9.7-7.2,15.3-7.2
		c8.7,0,12.9,4.9,12.9,13.2v30L348.5,465.3L348.5,465.3z"/>
	<path d="M378.4,466.2c-10.5,0-18.6-8.1-18.6-22c0-14,8.4-22,18.6-22c10.6,0,18.7,8,18.7,22C397.2,458.2,388.8,466.2,378.4,466.2z
		 M378.4,425.8c-9.2,0-14.2,7.5-14.2,18.4c0,10.6,5.1,18.4,14.2,18.4c9.2,0,14.3-7.4,14.3-18.4C392.8,433.6,387.6,425.8,378.4,425.8
		z"/>
	<path d="M420.7,466.2c-10.5,0-18.6-8.1-18.6-22c0-14,8.4-22,18.6-22c10.6,0,18.7,8,18.7,22S431,466.2,420.7,466.2z M420.7,425.8
		c-9.2,0-14.2,7.5-14.2,18.4c0,10.6,5.1,18.4,14.2,18.4c9.2,0,14.3-7.4,14.3-18.4C435,433.6,429.8,425.8,420.7,425.8z"/>
	<path d="M447.7,465.3v-63.4l4.1-0.9v64.3H447.7z"/>
	<path d="M494.9,466.2c-10.5,0-18.6-8.1-18.6-22c0-14,8.4-22,18.6-22c10.6,0,18.7,8,18.7,22S505.3,466.2,494.9,466.2z M494.9,425.8
		c-9.2,0-14.2,7.5-14.2,18.4c0,10.6,5.1,18.4,14.2,18.4c9.2,0,14.3-7.4,14.3-18.4C509.2,433.6,504.1,425.8,494.9,425.8z"/>
	<path d="M534.8,404.8c-4.3,0-6.9,2.2-6.9,7.4v10.9h8.9l0.6,3.6h-9.5v38.7h-4.1v-38.7h-6.6v-3.6h6.6V412c0-7.3,3.9-11.1,10.9-11.1
		c1.4,0,2,0,2.8,0.1l0.6,4C537.2,404.9,536.5,404.8,534.8,404.8z"/>
	<path d="M585.1,466.5c-16.3,0-27.8-13-27.8-32.1c0-18.9,11.7-32.3,28.5-32.3c6.7,0,12.6,2.2,17.3,5.4l-0.8,4.5
		c-5.1-3.7-10.5-6-16.6-6c-14.7,0-23.9,11.7-23.9,28.3s9.4,28.4,23.7,28.4c6.8,0,13-2.7,18-6.7l0.6,4.1
		C599.4,463.7,592.7,466.5,585.1,466.5z"/>
	<path d="M627.1,466.2c-10.5,0-18.6-8.1-18.6-22c0-14,8.4-22,18.6-22c10.6,0,18.7,8,18.7,22C645.8,458.2,637.5,466.2,627.1,466.2z
		 M627.1,425.8c-9.2,0-14.2,7.5-14.2,18.4c0,10.6,5.1,18.4,14.2,18.4c9.2,0,14.3-7.4,14.3-18.4C641.4,433.6,636.3,425.8,627.1,425.8
		z"/>
	<path d="M708.8,465.3v-29.4c0-6.4-2.8-9.9-8.9-9.9c-4.5,0-9.3,2.6-14.6,7.5v31.9h-4.1V436c0-6.4-2.8-9.9-8.9-9.9
		c-4.5,0-9.4,2.6-14.6,7.4v31.9h-4.2v-42.3h3.1l1.1,6.1c5-4.3,9.6-7,15.1-7c6.7,0,10.4,2.7,11.9,7.6c5.3-4.7,10.1-7.6,15.8-7.6
		c8.7,0,12.6,4.9,12.6,13.2v30h-4.3V465.3z"/>
	<path d="M738.5,465.9c-4.2,0-8-0.8-11.3-2.2v17l-4.2,0.9V423h3.1l1.1,6.1c3.4-3.9,7.4-7,13.5-7c9.4,0,17.4,6.7,17.4,20.9
		C758,458.4,748.8,465.9,738.5,465.9z M740.5,426c-5.1,0-9.1,3-13.3,7.7v25.8c3.3,1.6,7,2.6,11.2,2.6c8.5,0,15.1-6,15.1-19
		C753.6,432.1,748.1,426,740.5,426z"/>
	<path d="M794.6,465.3l-1.1-6.4c-5.1,4.5-9.8,7.3-15.4,7.3c-8.7,0-12.9-5-12.9-13.4V423h4.2v29.4c0,6.4,3.1,9.9,9.1,9.9
		c4.7,0,9.5-2.7,14.8-7.6V423h4.2v42.3H794.6z"/>
	<path d="M820.1,466.1c-6,0-10-2.5-10-9.6v-29.8h-6.6v-3.6h6.6v-15l4.2-0.9v15.9h10.3l0.5,3.6h-10.9v29.1c0,5,2,6.7,6.7,6.7
		c1.4,0,3.2-0.4,4.2-0.6l0.6,3.4C824.7,465.6,822.4,466.1,820.1,466.1z"/>
	<path d="M863.8,444.2h-29.9c0,10.8,5,18.4,14.5,18.4c5.1,0,10.5-2.7,14.7-6.5l0.6,4c-3.9,3.5-9.4,6.2-15.5,6.2
		c-11.2,0-18.6-8.3-18.6-22c0-13.5,7.7-22,18-22c10.8,0,16.2,9.4,16.2,21.1C863.8,443.6,863.8,443.8,863.8,444.2z M847.6,425.7
		c-8,0-12.5,6.2-13.5,15h25.2C859,432.4,855,425.7,847.6,425.7z"/>
	<path d="M875.7,437.5v27.8h-4.2V423h2.8l1.3,8.8c3.2-4.8,8.2-9.6,15.2-9.7l0.7,4C884.6,426.6,878.6,431.9,875.7,437.5z"/>
	<path d="M927.4,466.1c-7.2,0-12.4-1.7-15.8-3.7l0.6-4.4c3.5,2.2,9.1,4.2,15.5,4.2c7.9,0,14.2-4.9,14.2-12.6c0-6.5-3.6-10.2-13-14.2
		c-12.1-5.1-16.3-9.3-16.3-17.9c0-8.8,7.5-14.9,16.9-14.9c5.8,0,10.3,1.3,13.4,3.1l-0.6,4.3c-3.6-2.1-7.7-3.5-13-3.5
		c-7.5,0-12.3,4.8-12.3,10.9c0,6.5,3.5,9.5,13.2,13.7c11.1,4.7,16.2,9.5,16.2,18.4C946.4,459.9,937.7,466.1,927.4,466.1z"/>
	<path d="M970.5,466.2c-10.3,0-18.6-8.1-18.6-22c0-14,8.4-22,18.9-22c5.3,0,10,1.9,13.7,4.7l-0.8,4.3c-4.2-3.6-8.2-5.3-13-5.3
		c-9,0-14.3,7.5-14.3,18.4c0,10.6,5.1,18.4,14.7,18.4c4.6,0,8.8-1.6,13.2-5.4l0.5,4C980.8,464.4,976.1,466.2,970.5,466.2z"/>
	<path d="M994.6,411.6c-2,0-3.7-1.8-3.7-3.7c0-2,1.7-3.6,3.7-3.6s3.6,1.6,3.6,3.6C998.2,409.8,996.6,411.6,994.6,411.6z
		 M992.5,465.3V423h4.1v42.3H992.5z"/>
	<path d="M1039,444.2h-29.9c0,10.8,5,18.4,14.5,18.4c5.1,0,10.5-2.7,14.7-6.5l0.6,4c-3.9,3.5-9.4,6.2-15.5,6.2
		c-11.2,0-18.6-8.3-18.6-22c0-13.5,7.7-22,18-22c10.8,0,16.2,9.4,16.2,21.1C1039,443.6,1039,443.8,1039,444.2z M1022.8,425.7
		c-8,0-12.5,6.2-13.5,15h25.2C1034.3,432.4,1030.2,425.7,1022.8,425.7z"/>
	<path d="M1074.9,465.3v-29.4c0-6.4-3.1-9.9-9.1-9.9c-4.7,0-9.5,2.7-14.8,7.6v31.7h-4.2V423h3.1l1.1,6.4c5.1-4.5,9.8-7.3,15.4-7.3
		c8.7,0,12.9,5,12.9,13.4v29.8H1074.9z"/>
	<path d="M1104.8,466.2c-10.3,0-18.6-8.1-18.6-22c0-14,8.4-22,18.9-22c5.3,0,10,1.9,13.7,4.7l-0.8,4.3c-4.2-3.6-8.2-5.3-13-5.3
		c-9,0-14.3,7.5-14.3,18.4c0,10.6,5.1,18.4,14.7,18.4c4.6,0,8.8-1.6,13.2-5.4l0.5,4C1115.2,464.4,1110.5,466.2,1104.8,466.2z"/>
	<path d="M1156.8,444.2H1127c0,10.8,5,18.4,14.5,18.4c5.1,0,10.5-2.7,14.7-6.5l0.6,4c-3.9,3.5-9.4,6.2-15.5,6.2
		c-11.2,0-18.6-8.3-18.6-22c0-13.5,7.7-22,18-22c10.8,0,16.2,9.4,16.2,21.1C1156.8,443.6,1156.8,443.8,1156.8,444.2z M1140.6,425.7
		c-8,0-12.5,6.2-13.5,15h25.2C1152.1,432.4,1148,425.7,1140.6,425.7z"/>
</g>
<g>
	<path class="st0" d="M274.1,318.7h-1.2c-0.1,1.4-0.8,2-2.2,2c-2.8,0-7.3-3.4-12-3.4c-13.5,0-21.7,13.3-21.7,25.1
		c0,11.8,7.8,23.5,20.9,23.5c7.9,0,10.9-3.8,13-3.8c1.4,0,2.2,1.7,2.4,2.7h1v-16.1h-1l-0.4,2.2c-0.9,5.3-5.9,13.8-14.4,13.8
		c-7.5,0-10.4-7.1-10.4-23.1c0-16.8,4-23.1,10.6-23.1c7.5,0,13.1,9,14.2,15.8h1.2C274.1,334.3,274.1,318.7,274.1,318.7z"/>
	<path class="st0" d="M296.6,357.1c-0.1,3.5-2.1,6.6-5.1,6.6c-4.4,0-4.6-4-4.6-7.4c0-3.5,0.4-5.7,4.6-6.2l5.1-0.5V357.1z
		 M310.1,359.2h-1.2c0,1.7-0.7,3.6-2.3,3.6c-1.2,0-1.5-1.2-1.5-3.3v-15c0-7.4-7-9.2-13.7-9.2c-6.5,0-11.3,3.2-11.3,6.8
		c0,2.3,1.3,4.2,4.2,4.2c2.5,0,4-1.6,4-3.9c0-3.1-3.3-2.9-3.3-4c-0.1-1.4,3.7-2,5.9-2c4.9,0,5.5,2.4,5.5,6.3v5.5l-6.4,0.5
		c-5.9,0.5-12.4,2-12.4,8.8c0,5.7,5.1,7.9,10.1,7.9c2.5,0,7-1,8.7-4.1c1.2,2.7,3.6,4.1,6.5,4.1C307.4,365.6,310.1,363.1,310.1,359.2
		"/>
	<path class="st0" d="M310.5,364.8H330v-1.2h-6V347c0-5,1.6-8.5,5.7-10.4h0.3c-1.1,1.2-1.6,2.2-1.6,3.8c0,2.5,1.9,4.2,4.4,4.2
		c3.1,0,5-2.3,5-4.8c0-3.1-2.1-5-5.1-5c-4.2,0-7.4,2.9-8.6,6.1H324v-6.6c-1.4,1.7-6.2,1.7-8.9,1.7h-4.5v1.2h4.5v26.3h-4.5v1.3H310.5
		z"/>
	<path class="st0" d="M338.7,364.8H356v-1.2h-3.8v-17.8c0-3.3,3.3-8.1,6.9-8.1c1.9,0,3.8,0.8,3.8,5.3v20.6h-3.7v1.2h17.2v-1.2h-4.5
		v-18.1c0-7-3-10.1-9.2-10.1c-4.4,0-8.7,2.3-10.4,6.1h-0.1v-7c-1.4,1.7-6.2,1.7-8.9,1.7h-4.6v1.2h4.5v26.3h-4.5V364.8z"/>
	<path class="st0" d="M385.9,347.9v-5.6c0-4.4,1.9-5.7,4.1-5.7c3.1,0,4.1,2.1,4.1,5.7v5.6H385.9z M385.9,349.1h18
		c-0.1-7-6.6-13.8-13.4-13.7c-7.7,0-14.3,6.6-14.3,15.4c0,8.5,6.2,14.8,14.5,14.8c8,0,12-4.9,13.4-11.4h-1.2
		c-1.4,6.1-5.2,9.8-10.3,9.8c-6.1,0-6.7-5.1-6.7-9.5V349.1z"/>
	<path class="st0" d="M422.8,344.9c-0.1,8-1.8,8.5-4.1,8.5c-2.6,0-4-0.8-4-8.7c0-5.3,0.6-8.1,4-8.1
		C421.8,336.6,422.8,337.4,422.8,344.9 M411.5,367.2h10.2c6.5,0,8.7,0.6,8.7,4.6c0,4.8-5.9,9.2-12.4,9.2c-5.9,0-9.1-4-9.2-7.1
		C408.8,370.9,409.7,369.1,411.5,367.2 M436.2,338.3c0-2.3-2.5-3.5-4.4-3.5c-2.2,0-3.8,1.4-5,2.9c-1.9-1.4-4.5-2.3-8.1-2.3
		c-5.5,0-11.3,3.6-11.3,9.5c0,3.6,2,6.4,5.4,7.9v0.2c-2.5,0.3-6.5,2.1-6.5,7.5c0,3.3,1.5,5.7,4.2,6.5v0.1c-2.6,0.7-5.6,3.3-5.6,6.4
		c0,4.8,5.7,8.5,12.9,8.5c9.1,0,15-6.1,15-14.1c0-6.3-3.1-9.2-9.5-9h-10.8c-1.6,0-3.8-0.1-3.8-1.8c0-1.6,2.8-3.4,5.3-3.4
		c0.7,0,1.4,0.2,2.1,0.4c0.8,0.3,1.6,0.4,2.7,0.4c5.6,0,11.6-3.2,11.6-9.4c0-2.1-1-5-2.8-6.6c1.2-1.2,1.8-2.6,4.3-2.9v0.1
		c-1.4,0.7-1.8,1.6-1.8,2.9c0,1.5,1,3,3,3C435.1,341.6,436.2,340.1,436.2,338.3"/>
	<path class="st0" d="M437.3,364.8h18v-1.2h-4.5v-29.1c-1.4,1.7-6.2,1.7-8.9,1.7h-4.6v1.2h4.5v26.3h-4.5V364.8z"/>
	<path class="st0" d="M441.6,326.1c0,2.6,2.1,4.6,4.7,4.6c2.6,0,4.6-2.1,4.6-4.6c0-2.6-2.1-4.6-4.6-4.6
		C443.7,321.4,441.6,323.5,441.6,326.1"/>
	<path class="st0" d="M465,347.9v-5.6c0-4.4,1.9-5.7,4.1-5.7c3.1,0,4.1,2.1,4.1,5.7v5.6H465z M465,349.1h18
		c-0.1-7-6.6-13.8-13.4-13.7c-7.7,0-14.3,6.6-14.3,15.4c0,8.5,6.2,14.8,14.5,14.8c8,0,12-4.9,13.4-11.4H482
		c-1.4,6.1-5.2,9.8-10.3,9.8c-6.1,0-6.7-5.1-6.7-9.5V349.1z"/>
	<path class="st0" d="M494.4,364.8H507v-1.2h-0.9c-3.5,0-4.9-0.9-4.9-6.2v-36.9h0.1l15.6,44.3h1.8l15.2-43.5h0.1v42.3h-5.6v1.2H549
		v-1.2h-4.9v-43.4h4.9V319h-15.7l-11,31.5h-0.1L511.4,319h-16.7v1.2h4.9v37.9c0,2.8-0.7,5.6-5,5.6h-0.3v1.1H494.4z"/>
	<path class="st0" d="M558.1,347.9v-5.6c0-4.4,1.9-5.7,4.1-5.7c3.1,0,4.1,2.1,4.1,5.7v5.6H558.1z M558.1,349.1h18
		c-0.1-7-6.6-13.8-13.4-13.7c-7.7,0-14.3,6.6-14.3,15.4c0,8.5,6.2,14.8,14.5,14.8c8,0,12-4.9,13.4-11.4h-1.2
		c-1.4,6.1-5.2,9.8-10.3,9.8c-6.1,0-6.7-5.1-6.7-9.5V349.1z"/>
	<path class="st0" d="M576.3,364.8h18v-1.2h-4.5V317c-1.2,2-4.8,2-9.4,2h-4.1v1.2h4.5v43.5h-4.5V364.8z"/>
	<path class="st0" d="M595.4,364.8h18v-1.2h-4.5V317c-1.2,2-4.8,2-9.4,2h-4.1v1.2h4.5v43.5h-4.5V364.8z"/>
	<path class="st0" d="M633.5,357.5c0,4.9-2,6.9-5.3,6.9s-5.3-2-5.3-6.9v-14c0-4.9,2-6.9,5.3-6.9s5.3,2,5.3,6.9V357.5z M643.7,350.5
		c0-8.9-6.9-15.1-15.5-15.1s-15.5,6.2-15.5,15.1c0,8.9,6.9,15.1,15.5,15.1C636.8,365.6,643.7,359.4,643.7,350.5"/>
	<path class="st0" d="M643.7,364.8H661v-1.2h-3.8v-17.8c0-3.3,3.3-8.1,6.9-8.1c1.9,0,3.8,0.8,3.8,5.3v20.6h-3.7v1.2h17.2v-1.2h-4.5
		v-18.1c0-7-3-10.1-9.2-10.1c-4.4,0-8.7,2.3-10.4,6.1h-0.1v-7c-1.4,1.7-6.2,1.7-8.9,1.7h-4.6v1.2h4.5v26.3h-4.5L643.7,364.8
		L643.7,364.8z"/>
	<path class="st0" d="M690.5,320.2h5.1v29.5c0,10.1,7,16.2,17.6,16.2c12,0,17.2-6.3,17.2-15.9v-24.4c0-3.8,1-5.5,3.4-5.5h1.7V319
		h-12.9v1.2h1.9c3.3,0,4.4,1.7,4.4,5.5v24.7c0,8.9-5.3,13.2-11.7,13.2c-9.5,0-11.4-6.4-11.4-14.7v-28.7h5.3V319h-20.5v1.2H690.5z"/>
	<path class="st0" d="M732.9,364.8h17.3v-1.2h-3.8v-17.8c0-3.3,3.3-8.1,6.9-8.1c1.9,0,3.8,0.8,3.8,5.3v20.6h-3.7v1.2h17.2v-1.2h-4.5
		v-18.1c0-7-3-10.1-9.2-10.1c-4.4,0-8.7,2.3-10.4,6.1h-0.1v-7c-1.4,1.7-6.2,1.7-8.9,1.7h-4.6v1.2h4.5v26.3h-4.5V364.8z"/>
	<path class="st0" d="M771.6,364.8h18v-1.2h-4.5v-29.1c-1.4,1.7-6.2,1.7-8.9,1.7h-4.6v1.2h4.5v26.3h-4.5V364.8z"/>
	<path class="st0" d="M775.9,326.1c0,2.6,2.1,4.6,4.7,4.6c2.6,0,4.6-2.1,4.6-4.6c0-2.6-2.1-4.6-4.6-4.6
		C778,321.4,775.9,323.5,775.9,326.1"/>
	<path class="st0" d="M802.7,365.6h1.8l9.6-22.8c1.6-3.6,3-5.4,4.5-5.5h0.6v-1.2H809v1.2h1.2c1.9,0,3,0.7,3,2.4c0,1-0.3,2.5-1.1,4.3
		l-4.4,10.4l-7.6-17.1h3.9v-1.2h-16.3v1.2h2.8L802.7,365.6z"/>
	<path class="st0" d="M826.4,347.9v-5.6c0-4.4,1.9-5.7,4.1-5.7c3.1,0,4.1,2.1,4.1,5.7v5.6H826.4z M826.4,349.1h18
		c-0.1-7-6.6-13.8-13.4-13.7c-7.7,0-14.3,6.6-14.3,15.4c0,8.5,6.2,14.8,14.5,14.8c8,0,12-4.9,13.4-11.4h-1.2
		c-1.4,6.1-5.2,9.8-10.3,9.8c-6.1,0-6.3-5.1-6.3-9.5L826.4,349.1z"/>
	<path class="st0" d="M844.5,364.8H864v-1.2h-6V347c0-5,1.6-8.5,5.7-10.4h0.3c-1.1,1.2-1.6,2.2-1.6,3.8c0,2.5,1.9,4.2,4.4,4.2
		c3.1,0,4.9-2.3,4.9-4.8c0-3.1-2.1-5-5.1-5c-4.2,0-7.4,2.9-8.6,6.1h-0.1v-6.6c-1.4,1.7-6.2,1.7-8.9,1.7h-4.5v1.2h4.5v26.3h-4.5
		L844.5,364.8L844.5,364.8z"/>
	<path class="st0" d="M873.1,365.6h1.2c0.3-1,1.4-1.6,2.7-1.6c1.7,0,3.7,1.6,7.4,1.6c6.2,0,10.4-5.3,10.4-10.7
		c0-7.9-5.5-8.5-12.4-9.5c-3.6-0.5-5.9-1.1-5.9-4c0-3.1,2.7-4.9,6.2-4.9c4.9,0,7.5,3.8,9.1,8.1h1l-0.4-9.2h-1c0,0.8-0.8,1.4-2,1.4
		c-2.1,0-3.8-1.4-6.8-1.4c-6.5,0-9.7,5.5-9.7,9.7c0,8.4,6.4,9.1,11.3,9.7c4.7,0.6,6.6,1,6.6,4c0,3.5-2.9,5.6-6.4,5.6
		c-5,0-9-5-10.2-9.8H873v11H873.1z"/>
	<path class="st0" d="M895.9,364.8h18v-1.2h-4.5v-29.1c-1.4,1.7-6.2,1.7-8.9,1.7h-4.6v1.2h4.5v26.3h-4.5V364.8z"/>
	<path class="st0" d="M900.3,326.1c0,2.6,2.1,4.6,4.6,4.6s4.7-2.1,4.7-4.6c0-2.6-2.1-4.6-4.7-4.6S900.3,323.5,900.3,326.1"/>
	<path class="st0" d="M916.5,337.3v20.8c0,6.2,5.3,7.4,7.2,7.4c4,0,6.6-1.6,8.7-5l-0.8-0.5c-0.8,1.2-1.8,2.7-3.5,2.7
		s-2.5-1.2-2.5-3.4v-22h6v-1.2h-6v-14h-1.2c0,6.9-4.7,14-11.3,14v1.2H916.5z"/>
	<path class="st0" d="M931.3,337.3h2.7l12.5,29l-0.4,2.6c-0.3,1.9-1.6,9.3-3.7,10v-0.2c0.3-0.9,0.3-1.6,0.3-2.2
		c0-2.2-1.6-3.9-4.3-3.9c-2.9,0-4.3,2-4.3,4.4c0,2.7,2.5,4.6,5.3,4.6c5.1,0,6.4-5.7,7-8.4l1.8-7.9l3.4-8.5l6.4-14.5
		c1.4-3.3,2.7-4.9,4.2-4.9h0.5v-1.2h-10.2v1.2h1.4c2.1,0,3,1.2,3,2.3c0,1.3-0.8,3.5-1.9,5.9l-3.8,8.9l-7.6-17.1h4.3v-1.2h-16.7
		L931.3,337.3L931.3,337.3z"/>
</g>
</svg>
