<svg id="Layer_1" xmlns="http://www.w3.org/2000/svg" viewBox="0 0 736 76"><style>.st0{fill:#c41230}</style><path class="st0" d="M42.1 7.7h-1.2c-.1 1.4-.8 2-2.2 2-2.8 0-7.3-3.4-12-3.4C13.2 6.3 5 19.6 5 31.4s7.8 23.5 20.9 23.5c7.9 0 10.9-3.8 13-3.8 1.4 0 2.2 1.7 2.4 2.7h1V37.7h-1l-.4 2.2C40 45.2 35 53.7 26.5 53.7c-7.5 0-10.4-7.1-10.4-23.1 0-16.8 4-23.1 10.6-23.1 7.5 0 13.1 9 14.2 15.8h1.2V7.7zm22.5 38.4c-.1 3.5-2.1 6.6-5.1 6.6-4.4 0-4.6-4-4.6-7.4 0-3.5.4-5.7 4.6-6.2l5.1-.5v7.5zm13.5 2.1h-1.2c0 1.7-.7 3.6-2.3 3.6-1.2 0-1.5-1.2-1.5-3.3v-15c0-7.4-7-9.2-13.7-9.2-6.5 0-11.3 3.2-11.3 6.8 0 2.3 1.3 4.2 4.2 4.2 2.5 0 4-1.6 4-3.9 0-3.1-3.3-2.9-3.3-4-.1-1.4 3.7-2 5.9-2 4.9 0 5.5 2.4 5.5 6.3v5.5l-6.4.5c-5.9.5-12.4 2-12.4 8.8 0 5.7 5.1 7.9 10.1 7.9 2.5 0 7-1 8.7-4.1 1.2 2.7 3.6 4.1 6.5 4.1 4.5.2 7.2-2.3 7.2-6.2m.4 5.6H98v-1.2h-6V36c0-5 1.6-8.5 5.7-10.4h.3c-1.1 1.2-1.6 2.2-1.6 3.8 0 2.5 1.9 4.2 4.4 4.2 3.1 0 5-2.3 5-4.8 0-3.1-2.1-5-5.1-5-4.2 0-7.4 2.9-8.6 6.1H92v-6.6C90.6 25 85.8 25 83.1 25h-4.5v1.2H83v26.3h-4.5v1.3zm28.2 0H124v-1.2h-3.8V34.8c0-3.3 3.3-8.1 6.9-8.1 1.9 0 3.8.8 3.8 5.3v20.6h-3.7v1.2h17.2v-1.2h-4.5V34.5c0-7-3-10.1-9.2-10.1-4.4 0-8.7 2.3-10.4 6.1h-.1v-7c-1.4 1.7-6.2 1.7-8.9 1.7h-4.6v1.2h4.5v26.3h-4.5v1.1zm47.2-16.9v-5.6c0-4.4 1.9-5.7 4.1-5.7 3.1 0 4.1 2.1 4.1 5.7v5.6h-8.2zm0 1.2h18c-.1-7-6.6-13.8-13.4-13.7-7.7 0-14.3 6.6-14.3 15.4 0 8.5 6.2 14.8 14.5 14.8 8 0 12-4.9 13.4-11.4h-1.2c-1.4 6.1-5.2 9.8-10.3 9.8-6.1 0-6.7-5.1-6.7-9.5v-5.4zm36.9-4.2c-.1 8-1.8 8.5-4.1 8.5-2.6 0-4-.8-4-8.7 0-5.3.6-8.1 4-8.1 3.1 0 4.1.8 4.1 8.3m-11.3 22.3h10.2c6.5 0 8.7.6 8.7 4.6 0 4.8-5.9 9.2-12.4 9.2-5.9 0-9.1-4-9.2-7.1 0-3 .9-4.8 2.7-6.7m24.7-28.9c0-2.3-2.5-3.5-4.4-3.5-2.2 0-3.8 1.4-5 2.9-1.9-1.4-4.5-2.3-8.1-2.3-5.5 0-11.3 3.6-11.3 9.5 0 3.6 2 6.4 5.4 7.9v.2c-2.5.3-6.5 2.1-6.5 7.5 0 3.3 1.5 5.7 4.2 6.5v.1c-2.6.7-5.6 3.3-5.6 6.4 0 4.8 5.7 8.5 12.9 8.5 9.1 0 15-6.1 15-14.1 0-6.3-3.1-9.2-9.5-9h-10.8c-1.6 0-3.8-.1-3.8-1.8 0-1.6 2.8-3.4 5.3-3.4.7 0 1.4.2 2.1.4.8.3 1.6.4 2.7.4 5.6 0 11.6-3.2 11.6-9.4 0-2.1-1-5-2.8-6.6 1.2-1.2 1.8-2.6 4.3-2.9v.1c-1.4.7-1.8 1.6-1.8 2.9 0 1.5 1 3 3 3s3.1-1.5 3.1-3.3m1.1 26.5h18v-1.2h-4.5V23.5c-1.4 1.7-6.2 1.7-8.9 1.7h-4.6v1.2h4.5v26.3h-4.5v1.1zm4.3-38.7c0 2.6 2.1 4.6 4.7 4.6s4.6-2.1 4.6-4.6c0-2.6-2.1-4.6-4.6-4.6-2.6-.1-4.7 2-4.7 4.6M233 36.9v-5.6c0-4.4 1.9-5.7 4.1-5.7 3.1 0 4.1 2.1 4.1 5.7v5.6H233zm0 1.2h18c-.1-7-6.6-13.8-13.4-13.7-7.7 0-14.3 6.6-14.3 15.4 0 8.5 6.2 14.8 14.5 14.8 8 0 12-4.9 13.4-11.4H250c-1.4 6.1-5.2 9.8-10.3 9.8-6.1 0-6.7-5.1-6.7-9.5v-5.4zm29.4 15.7H275v-1.2h-.9c-3.5 0-4.9-.9-4.9-6.2V9.5h.1l15.6 44.3h1.8l15.2-43.5h.1v42.3h-5.6v1.2H317v-1.2h-4.9V9.2h4.9V8h-15.7l-11 31.5h-.1L279.4 8h-16.7v1.2h4.9v37.9c0 2.8-.7 5.6-5 5.6h-.3v1.1z"/><path class="st0" d="M326.1 36.9v-5.6c0-4.4 1.9-5.7 4.1-5.7 3.1 0 4.1 2.1 4.1 5.7v5.6h-8.2zm0 1.2h18c-.1-7-6.6-13.8-13.4-13.7-7.7 0-14.3 6.6-14.3 15.4 0 8.5 6.2 14.8 14.5 14.8 8 0 12-4.9 13.4-11.4h-1.2c-1.4 6.1-5.2 9.8-10.3 9.8-6.1 0-6.7-5.1-6.7-9.5v-5.4zm18.2 15.7h18v-1.2h-4.5V6c-1.2 2-4.8 2-9.4 2h-4.1v1.2h4.5v43.5h-4.5v1.1zm19.1 0h18v-1.2h-4.5V6c-1.2 2-4.8 2-9.4 2h-4.1v1.2h4.5v43.5h-4.5v1.1zm38.1-7.3c0 4.9-2 6.9-5.3 6.9s-5.3-2-5.3-6.9v-14c0-4.9 2-6.9 5.3-6.9s5.3 2 5.3 6.9v14zm10.2-7c0-8.9-6.9-15.1-15.5-15.1s-15.5 6.2-15.5 15.1c0 8.9 6.9 15.1 15.5 15.1s15.5-6.2 15.5-15.1m0 14.3H429v-1.2h-3.8V34.8c0-3.3 3.3-8.1 6.9-8.1 1.9 0 3.8.8 3.8 5.3v20.6h-3.7v1.2h17.2v-1.2h-4.5V34.5c0-7-3-10.1-9.2-10.1-4.4 0-8.7 2.3-10.4 6.1h-.1v-7c-1.4 1.7-6.2 1.7-8.9 1.7h-4.6v1.2h4.5v26.3h-4.5v1.1zm46.8-44.6h5.1v29.5c0 10.1 7 16.2 17.6 16.2 12 0 17.2-6.3 17.2-15.9V14.6c0-3.8 1-5.5 3.4-5.5h1.7V8h-12.9v1.2h1.9c3.3 0 4.4 1.7 4.4 5.5v24.7c0 8.9-5.3 13.2-11.7 13.2-9.5 0-11.4-6.4-11.4-14.7V9.2h5.3V8h-20.5v1.2z"/><path class="st0" d="M500.9 53.8h17.3v-1.2h-3.8V34.8c0-3.3 3.3-8.1 6.9-8.1 1.9 0 3.8.8 3.8 5.3v20.6h-3.7v1.2h17.2v-1.2h-4.5V34.5c0-7-3-10.1-9.2-10.1-4.4 0-8.7 2.3-10.4 6.1h-.1v-7c-1.4 1.7-6.2 1.7-8.9 1.7h-4.6v1.2h4.5v26.3h-4.5v1.1zm38.7 0h18v-1.2h-4.5V23.5c-1.4 1.7-6.2 1.7-8.9 1.7h-4.6v1.2h4.5v26.3h-4.5v1.1zm4.3-38.7c0 2.6 2.1 4.6 4.7 4.6s4.6-2.1 4.6-4.6c0-2.6-2.1-4.6-4.6-4.6-2.6-.1-4.7 2-4.7 4.6m26.8 39.5h1.8l9.6-22.8c1.6-3.6 3-5.4 4.5-5.5h.6v-1.2H577v1.2h1.2c1.9 0 3 .7 3 2.4 0 1-.3 2.5-1.1 4.3l-4.4 10.4-7.6-17.1h3.9v-1.2h-16.3v1.2h2.8l12.2 28.3zm23.7-17.7v-5.6c0-4.4 1.9-5.7 4.1-5.7 3.1 0 4.1 2.1 4.1 5.7v5.6h-8.2zm0 1.2h18c-.1-7-6.6-13.8-13.4-13.7-7.7 0-14.3 6.6-14.3 15.4 0 8.5 6.2 14.8 14.5 14.8 8 0 12-4.9 13.4-11.4h-1.2c-1.4 6.1-5.2 9.8-10.3 9.8-6.1 0-6.3-5.1-6.3-9.5l-.4-5.4z"/><path class="st0" d="M612.5 53.8H632v-1.2h-6V36c0-5 1.6-8.5 5.7-10.4h.3c-1.1 1.2-1.6 2.2-1.6 3.8 0 2.5 1.9 4.2 4.4 4.2 3.1 0 4.9-2.3 4.9-4.8 0-3.1-2.1-5-5.1-5-4.2 0-7.4 2.9-8.6 6.1h-.1v-6.6c-1.4 1.7-6.2 1.7-8.9 1.7h-4.5v1.2h4.5v26.3h-4.5v1.3zm28.6.8h1.2c.3-1 1.4-1.6 2.7-1.6 1.7 0 3.7 1.6 7.4 1.6 6.2 0 10.4-5.3 10.4-10.7 0-7.9-5.5-8.5-12.4-9.5-3.6-.5-5.9-1.1-5.9-4 0-3.1 2.7-4.9 6.2-4.9 4.9 0 7.5 3.8 9.1 8.1h1l-.4-9.2h-1c0 .8-.8 1.4-2 1.4-2.1 0-3.8-1.4-6.8-1.4-6.5 0-9.7 5.5-9.7 9.7 0 8.4 6.4 9.1 11.3 9.7 4.7.6 6.6 1 6.6 4 0 3.5-2.9 5.6-6.4 5.6-5 0-9-5-10.2-9.8H641v11zm22.8-.8h18v-1.2h-4.5V23.5c-1.4 1.7-6.2 1.7-8.9 1.7h-4.6v1.2h4.5v26.3h-4.5v1.1zm4.4-38.7c0 2.6 2.1 4.6 4.6 4.6s4.7-2.1 4.7-4.6c0-2.6-2.1-4.6-4.7-4.6s-4.6 2-4.6 4.6m16.2 11.2v20.8c0 6.2 5.3 7.4 7.2 7.4 4 0 6.6-1.6 8.7-5l-.8-.5c-.8 1.2-1.8 2.7-3.5 2.7s-2.5-1.2-2.5-3.4v-22h6v-1.2h-6v-14h-1.2c0 6.9-4.7 14-11.3 14v1.2h3.4z"/><path class="st0" d="M699.3 26.3h2.7l12.5 29-.4 2.6c-.3 1.9-1.6 9.3-3.7 10v-.2c.3-.9.3-1.6.3-2.2 0-2.2-1.6-3.9-4.3-3.9-2.9 0-4.3 2-4.3 4.4 0 2.7 2.5 4.6 5.3 4.6 5.1 0 6.4-5.7 7-8.4l1.8-7.9 3.4-8.5 6.4-14.5c1.4-3.3 2.7-4.9 4.2-4.9h.5v-1.2h-10.2v1.2h1.4c2.1 0 3 1.2 3 2.3 0 1.3-.8 3.5-1.9 5.9l-3.8 8.9-7.6-17.1h4.3v-1.2h-16.7v1.1z"/></svg>