<svg width="25" height="25" viewBox="0 0 25 25" fill="none" xmlns="http://www.w3.org/2000/svg">
<path fill-rule="evenodd" clip-rule="evenodd" d="M21.8706 3.3122L12.4835 5.23604L19.9468 12.6993L21.8706 3.3122ZM24.7761 1.5871C24.9202 0.884056 24.2987 0.262606 23.5957 0.40669L9.25142 3.34646C8.4711 3.50638 8.18184 4.46996 8.74509 5.0332L20.1496 16.4377C20.7128 17.001 21.6764 16.7117 21.8363 15.9314L24.7761 1.5871Z" fill="#FF7F73"/>
<path d="M1.38921 24.9139C0.738456 24.9986 0.183937 24.4441 0.268582 23.7933L1.93701 10.9663C2.04404 10.1434 3.04898 9.80135 3.63576 10.3881L14.7944 21.5467C15.3812 22.1335 15.0392 23.1385 14.2162 23.2455L1.38921 24.9139Z" fill="#FF7F73"/>
</svg>
