<svg width="26" height="70" viewBox="0 0 26 70" fill="none" xmlns="http://www.w3.org/2000/svg">
<path fill-rule="evenodd" clip-rule="evenodd" d="M23.9036 0.713148C24.6066 0.569064 25.2281 1.19051 25.084 1.89356L22.1442 16.2378C21.9843 17.0182 21.0207 17.3074 20.4575 16.7442L9.05294 5.33966C8.4897 4.77642 8.77895 3.81284 9.55928 3.65291L23.9036 0.713148ZM12.7913 5.54249L22.1785 3.61866L20.2546 13.0058L12.7913 5.54249Z" fill="black"/>
<path d="M0.576442 24.1002C0.4918 24.751 1.04632 25.3055 1.69708 25.2208L14.5241 23.5524C15.347 23.4454 15.689 22.4404 15.1022 21.8536L3.94362 10.695C3.35684 10.1083 2.35191 10.4503 2.24487 11.2732L0.576442 24.1002Z" fill="black"/>
<line y1="-1.5" x2="28.5021" y2="-1.5" transform="matrix(-0.713716 0.700435 -0.713716 -0.700435 22.4575 46.9999)" stroke="black" stroke-width="3"/>
<line y1="-1.5" x2="28.5021" y2="-1.5" transform="matrix(-0.713716 -0.700435 0.713716 -0.700435 23.8848 67)" stroke="black" stroke-width="3"/>
</svg>
